<?xml version="1.0" encoding="iso-8859-1"?>
<!-- Generator: Adobe Illustrator 19.1.0, SVG Export Plug-In . SVG Version: 6.00 Build 0)  -->
<svg version="1.1" id="Capa_1" xmlns="http://www.w3.org/2000/svg" xmlns:xlink="http://www.w3.org/1999/xlink" x="0px" y="0px"
	 viewBox="0 0 64.831 64.831" style="enable-background:new 0 0 64.831 64.831;" xml:space="preserve">
<g>
	<g id="group-24svg">
		<path id="path-1_15_" style="fill:#68411d;" d="M31.684,11.346L4.831,60h60L37.979,11.305
			C36.478,9.066,33.184,9.106,31.684,11.346z"/>
		<path id="path-2_15_" style="fill:#68411d;" d="M61.5,58h-60c-0.531,0-1.023-0.281-1.292-0.739c-0.27-0.457-0.277-1.023-0.02-1.488L27.041,7.368
			c0.02-0.037,0.042-0.072,0.065-0.107c1.02-1.522,2.712-2.43,4.527-2.43c1.743,0,3.297,0.825,4.261,2.265
			c0.023,0.035,0.045,0.072,0.066,0.109l26.853,48.57c0.257,0.464,0.248,1.03-0.021,1.487C62.522,57.72,62.031,58,61.5,58z
			 M4.047,55h54.909L33.369,8.719c-0.543-0.771-1.318-0.888-1.736-0.888c-0.795,0-1.539,0.393-2.004,1.054L4.047,55z"/>
		<path id="path-3_15_" style="fill:#e7e1d8;" d="M36.799,30.352l-5.556,1.954L34.221,23h-4.674L26.24,39.128l5.566-2.487l-0.889,6.39l-2.177-3.182
			l2.51,11.833l4.547-9.369l-1.962,1.241L36.799,30.352z"/>
	</g>
</g>
<g>
</g>
<g>
</g>
<g>
</g>
<g>
</g>
<g>
</g>
<g>
</g>
<g>
</g>
<g>
</g>
<g>
</g>
<g>
</g>
<g>
</g>
<g>
</g>
<g>
</g>
<g>
</g>
<g>
</g>
</svg>
