<?xml version="1.0" ?><svg style="background:new 0 0 64 64;" fill="#68411d" version="1.1" viewBox="0 0 64 64" xml:space="preserve" xmlns="http://www.w3.org/2000/svg" xmlns:xlink="http://www.w3.org/1999/xlink"><g id="orgami"/><g id="embroidery"/><g id="craftsman"/><g id="pottery"/><g id="sculpt"/><g id="yarn"/><g id="scissors"/><g id="sewing_machine"/><g id="knitting"/><g id="stationary"/><g id="stapler"/><g id="compass"/><g id="cutter"/><g id="pin_tool"/><g id="wood_chisel"/><g id="adhesive_tape"/><g id="sewing_clothes"/><g id="anvil"/><g id="glue_gun"><path d="M60,19c0.6,0,1-0.4,1-1v-4c0-0.6-0.4-1-1-1h-7v-1c0-0.6-0.4-1-1-1H42c-0.6,0-1,0.4-1,1v1H25v-1c0-0.6-0.4-1-1-1H12   c-0.6,0-1,0.4-1,1v1.3l-7.4,2.8C3.3,16.2,3,16.6,3,17v4c0,0.4,0.3,0.8,0.6,0.9l7.4,2.8V27c0,3.3,2.7,6,6,6h19.3l0.6,2.1l-0.2,0.1   c-1.6,0.5-2.5,2.1-2,3.7l0.9,2.9c0.4,1.3,1.6,2.2,2.9,2.2c0.3,0,0.6,0,0.8-0.1l0.2-0.1l2.6,8.6c0.1,0.4,0.5,0.7,1,0.7h17   c0.3,0,0.6-0.2,0.8-0.4c0.2-0.3,0.2-0.6,0.1-0.9L53,27.8V19H60z M59,15v2h-6v-2H59z M25,19h16v2H25V19z M41,15v2H25v-2H41z M5,20.3   v-2.6l6-2.3v7.1L5,20.3z M38.7,41.8c-0.5,0.2-1.1-0.1-1.2-0.7l-0.9-2.9c-0.2-0.5,0.1-1.1,0.7-1.2l0.2-0.1l1.4,4.8L38.7,41.8z    M58.6,51H43.7L38,31.7c-0.1-0.4-0.5-0.7-1-0.7H17c-2.2,0-4-1.8-4-4v-3V14v-1h10v1v4v4c0,0.6,0.4,1,1,1h18c0.6,0,1-0.4,1-1v-4v-4   v-1h8v1v4v10c0,0.1,0,0.2,0.1,0.3L58.6,51z"/></g><g id="roller_brush"/></svg>