<?xml version="1.0" encoding="UTF-8" standalone="no"?>
<svg
   xmlns:dc="http://purl.org/dc/elements/1.1/"
   xmlns:cc="http://creativecommons.org/ns#"
   xmlns:rdf="http://www.w3.org/1999/02/22-rdf-syntax-ns#"
   xmlns:svg="http://www.w3.org/2000/svg"
   xmlns="http://www.w3.org/2000/svg"
   xmlns:sodipodi="http://sodipodi.sourceforge.net/DTD/sodipodi-0.dtd"
   xmlns:inkscape="http://www.inkscape.org/namespaces/inkscape"
   inkscape:export-ydpi="576"
   inkscape:export-xdpi="576"
   inkscape:export-filename="E:\Project\27-3-2022\4 - Icon-Icons\017 - Construction And Equipment\Send\12 - Paint Roller.png"
   sodipodi:docname="12 - Paint Roller.svg"
   inkscape:version="1.0 (4035a4fb49, 2020-05-01)"
   id="svg831"
   version="1.1"
   viewBox="0 0 22.577778 22.577778"
   height="64pt"
   width="64pt">
   
  <defs
     id="defs825">
    <pattern
       y="0"
       x="0"
       height="6"
       width="6"
       patternUnits="userSpaceOnUse"
       id="EMFhbasepattern" />
    <pattern
       y="0"
       x="0"
       height="6"
       width="6"
       patternUnits="userSpaceOnUse"
       id="EMFhbasepattern-9" />
    <pattern
       y="0"
       x="0"
       height="6"
       width="6"
       patternUnits="userSpaceOnUse"
       id="EMFhbasepattern-0" />
    <pattern
       y="0"
       x="0"
       height="6"
       width="6"
       patternUnits="userSpaceOnUse"
       id="EMFhbasepattern-7" />
    <pattern
       y="0"
       x="0"
       height="6"
       width="6"
       patternUnits="userSpaceOnUse"
       id="EMFhbasepattern-2" />
    <pattern
       y="0"
       x="0"
       height="6"
       width="6"
       patternUnits="userSpaceOnUse"
       id="EMFhbasepattern-98" />
    <pattern
       y="0"
       x="0"
       height="6"
       width="6"
       patternUnits="userSpaceOnUse"
       id="EMFhbasepattern-6" />
    <pattern
       y="0"
       x="0"
       height="6"
       width="6"
       patternUnits="userSpaceOnUse"
       id="EMFhbasepattern-01" />
    <pattern
       y="0"
       x="0"
       height="6"
       width="6"
       patternUnits="userSpaceOnUse"
       id="EMFhbasepattern-07" />
    <pattern
       y="0"
       x="0"
       height="6"
       width="6"
       patternUnits="userSpaceOnUse"
       id="EMFhbasepattern-8" />
    <pattern
       y="0"
       x="0"
       height="6"
       width="6"
       patternUnits="userSpaceOnUse"
       id="EMFhbasepattern-4" />
    <pattern
       y="0"
       x="0"
       height="6"
       width="6"
       patternUnits="userSpaceOnUse"
       id="EMFhbasepattern-40" />
    <pattern
       y="0"
       x="0"
       height="6"
       width="6"
       patternUnits="userSpaceOnUse"
       id="EMFhbasepattern-08" />
    <pattern
       y="0"
       x="0"
       height="6"
       width="6"
       patternUnits="userSpaceOnUse"
       id="EMFhbasepattern-04" />
    <pattern
       y="0"
       x="0"
       height="6"
       width="6"
       patternUnits="userSpaceOnUse"
       id="EMFhbasepattern-014" />
    <pattern
       y="0"
       x="0"
       height="6"
       width="6"
       patternUnits="userSpaceOnUse"
       id="EMFhbasepattern-27" />
    <pattern
       y="0"
       x="0"
       height="6"
       width="6"
       patternUnits="userSpaceOnUse"
       id="EMFhbasepattern-09" />
    <pattern
       y="0"
       x="0"
       height="6"
       width="6"
       patternUnits="userSpaceOnUse"
       id="EMFhbasepattern-5" />
    <pattern
       y="0"
       x="0"
       height="6"
       width="6"
       patternUnits="userSpaceOnUse"
       id="EMFhbasepattern-018" />
  </defs>
  <sodipodi:namedview
     inkscape:document-rotation="0"
     inkscape:lockguides="true"
     inkscape:snap-global="true"
     inkscape:snap-nodes="false"
     inkscape:bbox-nodes="true"
     inkscape:snap-bbox="true"
     showguides="false"
     inkscape:snap-midpoints="true"
     inkscape:snap-smooth-nodes="true"
     inkscape:snap-intersection-paths="true"
     inkscape:object-paths="true"
     inkscape:showpageshadow="false"
     inkscape:pagecheckerboard="true"
     inkscape:window-maximized="1"
     inkscape:window-y="-8"
     inkscape:window-x="-8"
     inkscape:window-height="716"
     inkscape:window-width="1366"
     units="pt"
     showgrid="false"
     inkscape:current-layer="layer1"
     inkscape:document-units="pt"
     inkscape:cy="42.666667"
     inkscape:cx="42.666667"
     inkscape:zoom="3.682148"
     inkscape:pageshadow="2"
     inkscape:pageopacity="0.0"
     borderopacity="1.0"
     bordercolor="#666666"
     pagecolor="#ffffff"
     id="base">
    <inkscape:grid
       id="grid1378"
       type="xygrid" />
    <sodipodi:guide
       inkscape:locked="true"
       id="guide1380"
       orientation="78.000048,0"
       position="0.97013831,21.607643" />
    <sodipodi:guide
       inkscape:locked="true"
       id="guide1382"
       orientation="0,78.000005"
       position="0.97013831,0.97013129" />
    <sodipodi:guide
       inkscape:locked="true"
       id="guide1384"
       orientation="-78.000048,0"
       position="21.607639,0.97013129" />
    <sodipodi:guide
       inkscape:locked="true"
       id="guide1386"
       orientation="0,-78.000005"
       position="21.607639,21.607643" />
  </sodipodi:namedview>
  <metadata
     id="metadata828">
    <rdf:RDF>
      <cc:Work
         rdf:about="">
        <dc:format>image/svg+xml</dc:format>
        <dc:type
           rdf:resource="http://purl.org/dc/dcmitype/StillImage" />
        <dc:title></dc:title>
      </cc:Work>
    </rdf:RDF>
  </metadata>
  <g
     transform="translate(0,-274.42223)"
     id="layer1"
     inkscape:groupmode="layer"
     inkscape:label="Icon">
    <path
       sodipodi:nodetypes="sccccssccssccscsccscsccsccsccccccccccccccccccccccccccsssscsssssss"
       fill="#68411d"
       d="m 12.752299,275.39238 c -0.346538,2e-5 -0.693099,0.13152 -0.955542,0.39399 l -1.560284,1.56029 c -0.5248959,0.52495 -0.5249263,1.38616 0,1.91109 l 6.794827,6.7981 c 0.524916,0.52491 1.386176,0.52491 1.911089,0 l 1.563558,-1.56356 c 0.524912,-0.52491 0.524925,-1.38617 0,-1.91109 l -6.798102,-6.79483 c -0.262469,-0.26244 -0.609017,-0.39401 -0.955546,-0.39399 z m -2.968073,0.0609 c -0.379143,0 -0.7437429,0.1497 -1.0118286,0.41821 -0.3781777,0.37784 -0.8228147,0.82282 -1.1597423,1.15974 -0.4103535,0.41079 -0.53211,1.0302 -0.3062965,1.56552 0.5901954,1.39909 1.9512456,4.62682 2.7304984,6.47413 0.295158,0.69963 0.138394,1.50763 -0.3985824,2.0446 -0.08944,0.0894 -0.089643,0.0895 -0.1740917,0.17409 l 0.473848,0.47451 c 0.084475,-0.0845 0.084589,-0.0846 0.1740921,-0.17409 0.728401,-0.72842 0.942979,-1.82982 0.542564,-2.77893 -0.7792515,-1.84733 -2.1402989,-5.0757 -2.7304977,-6.47479 -0.1206582,-0.28606 -0.0564,-0.61159 0.1629665,-0.83119 0.3369276,-0.33693 0.7817288,-0.78208 1.1597427,-1.15975 0.1422836,-0.14251 0.3354931,-0.22382 0.5373275,-0.22382 0.1943304,0 0.37927,0.0764 0.520315,0.20942 l 0.473843,-0.47384 c -0.266564,-0.25829 -0.622519,-0.40381 -0.994158,-0.40381 z m 11.158912,9.54888 -1.491563,1.49222 0.32724,0.32725 c 0.130865,0.1308 0.342983,0.1308 0.473848,0 l 1.019025,-1.01904 c 0.129075,-0.13055 0.129075,-0.34066 0,-0.47123 z m -13.3520797,1.80703 c 0,0 -0.9691572,0.8537 -1.2677299,1.11655 l 0.7519992,0.75069 c 0.1312666,0.13093 0.1312666,0.34356 0,0.47449 -0.1308577,0.13083 -0.3429894,0.13083 -0.4738472,0 l -0.7827576,-0.78145 c -1.1649797,1.02559 -2.349586,2.06889 -3.8195557,3.36338 -1.02869676,1.01926 -1.04355483,2.61499 -0.097519,3.59048 1.0203396,0.99474 2.6695044,0.9179 3.5911418,-0.0969 1.2944872,-1.46997 2.3383739,-2.65457 3.3646916,-3.81955 l -1.4339706,-1.43197 c -0.1308276,-0.13086 -0.1308276,-0.34299 0,-0.47384 0.060836,-0.0605 0.1425962,-0.0955 0.2284139,-0.0975 0.091708,-0.003 0.1804183,0.0328 0.2454301,0.0975 l 1.4032089,1.4032 c 0.2636181,-0.29922 1.1178552,-1.26969 1.1178552,-1.26969 0.115885,-0.13244 0.109603,-0.33195 -0.01441,-0.45683 L 8.0504951,286.82423 C 7.898704,286.70189 7.688928,286.71126 7.5910503,286.80913 Z m -3.7901042,5.47083 c 0.2949537,0 0.5884797,0.11196 0.8115589,0.33509 0.4462723,0.44628 0.4462723,1.17813 0,1.62442 -0.4461617,0.44617 -1.1802267,0.44617 -1.6263883,0 -0.4462723,-0.44629 -0.4462723,-1.17814 0,-1.62442 0.2230825,-0.22304 0.5198791,-0.33509 0.8148294,-0.33509 z m -0.00134,0.66495 c -0.1222095,0 -0.2442772,0.0472 -0.3390218,0.14202 -0.1900354,0.19003 -0.1900354,0.49063 0,0.68066 0.1894859,0.18948 0.4885545,0.18948 0.6780438,0 0.1900322,-0.19003 0.1900322,-0.49063 0,-0.68066 -0.094744,-0.0947 -0.2168163,-0.14202 -0.339022,-0.14202 z"
       style="color:#68411d;font-style:normal;font-variant:normal;font-weight:normal;font-stretch:normal;font-size:medium;line-height:normal;font-family:sans-serif;font-variant-ligatures:normal;font-variant-position:normal;font-variant-caps:normal;font-variant-numeric:normal;font-variant-alternates:normal;font-variant-east-asian:normal;font-feature-settings:normal;font-variation-settings:normal;text-indent:0;text-align:start;text-decoration:none;text-decoration-line:none;text-decoration-style:solid;text-decoration-color:#68411d;letter-spacing:normal;word-spacing:normal;text-transform:none;writing-mode:lr-tb;direction:ltr;text-orientation:mixed;dominant-baseline:auto;baseline-shift:baseline;text-anchor:start;white-space:normal;shape-padding:0;shape-margin:0;inline-size:0;clip-rule:evenodd;display:inline;overflow:visible;visibility:visible;isolation:auto;mix-blend-mode:normal;color-interpolation:sRGB;color-interpolation-filters:linearRGB;solid-color:#68411d;solid-opacity:1;vector-effect:none;fill:#68411d;fill-opacity:1;fill-rule:evenodd;stroke:none;stroke-width:0.529167px;stroke-linecap:round;stroke-linejoin:round;stroke-miterlimit:1.5;stroke-dasharray:none;stroke-dashoffset:0;stroke-opacity:1;color-rendering:auto;image-rendering:auto;shape-rendering:auto;text-rendering:auto;enable-background:accumulate;stop-color:#68411d"
       id="path1884" />
  </g>
</svg>
